# xmcd
#
# Track frame offsets: 
#        150
#        22044
#        40723
#        60152
#        80404
#        96293
#        112232
#        132440
#        156042
#        170860
#        195143
#        204787
#
# Disc length: 2948 seconds
#
# Revision: 0
# Processed by: cddbd v1.5.1PL2 Copyright (c) Steve Scherf et al.
# Submitted via: ExactAudioCopy v0.95b3
#
DISCID=960b820c
DTITLE=Ron Fetner - Defying Gravity
DYEAR=2004
DGENRE=Folk/Rock
TTITLE0=Man On The Moon
TTITLE1=Midnight Revellers
TTITLE2=My Name Is Justin
TTITLE3=Holes
TTITLE4=Broken Plow
TTITLE5=Texas Tumbleweed
TTITLE6='61 Comet
TTITLE7=That's My LIfe
TTITLE8=Swan Creek Road
TTITLE9=We Have Come
TTITLE10=The Reprise (We Have Come)
TTITLE11=My Name Is Justin (Duet)
EXTD=
EXTT0=
EXTT1=
EXTT2=
EXTT3=
EXTT4=
EXTT5=
EXTT6=
EXTT7=
EXTT8=
EXTT9=
EXTT10=
EXTT11=
PLAYORDER=
